# xmcd
#
# Track frame offsets:
#	150
#	16542
#	40224
#	56346
#	63513
#	77216
#	115679
#	133636
#
# Disc length: 1884 seconds
#
# Revision: 3
# Processed by: cddbd v1.5.2PL0 Copyright (c) Steve Scherf et al.
# Submitted via: EasyCDDAExtractor 15.2.0.1
#
DISCID=5c075a08
DTITLE=Natalia Sikora - BWB Experience - CD2
DYEAR=2014
DGENRE=Blues
TTITLE0=Symfonia Psa
TTITLE1=Insomnia
TTITLE2=Transpotomny
TTITLE3=Tam
TTITLE4=Pustoć
TTITLE5=PS Moby Dick
TTITLE6=W Zastępstwie
TTITLE7=W Oku Wieloryba (Outro)
EXTD=
EXTT0=
EXTT1=
EXTT2=
EXTT3=
EXTT4=
EXTT5=
EXTT6=
EXTT7=
PLAYORDER=
